<svg xmlns="http://www.w3.org/2000/svg" style="display:none">
  <defs>
    <g id="i-base"></g>
  </defs>

  <!-- Every symbol: 24x24, stroke currentColor, no fill. Coherent weight. -->

  <symbol id="i-phone" viewBox="0 0 24 24" fill="none" stroke="currentColor" stroke-width="1.75" stroke-linecap="round" stroke-linejoin="round">
    <path d="M6.5 3h3l1.5 4-2 1.5a12 12 0 0 0 5.5 5.5L16 12l4 1.5v3a2 2 0 0 1-2.2 2A16.5 16.5 0 0 1 3.5 5.2 2 2 0 0 1 5.5 3Z"/>
  </symbol>

  <symbol id="i-message" viewBox="0 0 24 24" fill="none" stroke="currentColor" stroke-width="1.75" stroke-linecap="round" stroke-linejoin="round">
    <path d="M4 5h16a1 1 0 0 1 1 1v10a1 1 0 0 1-1 1H9l-4 4v-4H4a1 1 0 0 1-1-1V6a1 1 0 0 1 1-1Z"/>
  </symbol>

  <symbol id="i-route" viewBox="0 0 24 24" fill="none" stroke="currentColor" stroke-width="1.75" stroke-linecap="round" stroke-linejoin="round">
    <circle cx="6" cy="6" r="2.5"/>
    <circle cx="18" cy="18" r="2.5"/>
    <path d="M15.5 6h2a2 2 0 0 1 0 4h-7a2 2 0 0 0 0 4h2"/>
  </symbol>

  <symbol id="i-map" viewBox="0 0 24 24" fill="none" stroke="currentColor" stroke-width="1.75" stroke-linecap="round" stroke-linejoin="round">
    <path d="M9 4 3 6v14l6-2 6 2 6-2V4l-6 2Z"/>
    <path d="M9 4v14M15 6v14"/>
  </symbol>

  <symbol id="i-pin" viewBox="0 0 24 24" fill="none" stroke="currentColor" stroke-width="1.75" stroke-linecap="round" stroke-linejoin="round">
    <path d="M12 21s7-5.5 7-11a7 7 0 1 0-14 0c0 5.5 7 11 7 11Z"/>
    <circle cx="12" cy="10" r="2.5"/>
  </symbol>

  <symbol id="i-truck" viewBox="0 0 24 24" fill="none" stroke="currentColor" stroke-width="1.75" stroke-linecap="round" stroke-linejoin="round">
    <path d="M2 6h11v10H2z"/>
    <path d="M13 9h4l4 4v3h-8z"/>
    <circle cx="6" cy="18" r="1.75"/>
    <circle cx="17" cy="18" r="1.75"/>
  </symbol>

  <symbol id="i-calendar" viewBox="0 0 24 24" fill="none" stroke="currentColor" stroke-width="1.75" stroke-linecap="round" stroke-linejoin="round">
    <rect x="3.5" y="5" width="17" height="15" rx="1.5"/>
    <path d="M3.5 10h17M8 3.5v3M16 3.5v3"/>
  </symbol>

  <symbol id="i-clock" viewBox="0 0 24 24" fill="none" stroke="currentColor" stroke-width="1.75" stroke-linecap="round" stroke-linejoin="round">
    <circle cx="12" cy="12" r="8.5"/>
    <path d="M12 7.5V12l3 2"/>
  </symbol>

  <symbol id="i-repeat" viewBox="0 0 24 24" fill="none" stroke="currentColor" stroke-width="1.75" stroke-linecap="round" stroke-linejoin="round">
    <path d="M4 9a5 5 0 0 1 5-5h9l-2.5-2.5M20 15a5 5 0 0 1-5 5H6l2.5 2.5"/>
  </symbol>

  <symbol id="i-users" viewBox="0 0 24 24" fill="none" stroke="currentColor" stroke-width="1.75" stroke-linecap="round" stroke-linejoin="round">
    <circle cx="9" cy="8" r="3.25"/>
    <path d="M3 20a6 6 0 0 1 12 0"/>
    <path d="M16 5.5a3.25 3.25 0 0 1 0 6.4M17.5 14.2A5.5 5.5 0 0 1 21 19.5"/>
  </symbol>

  <symbol id="i-box" viewBox="0 0 24 24" fill="none" stroke="currentColor" stroke-width="1.75" stroke-linecap="round" stroke-linejoin="round">
    <path d="M12 3 3.5 7.5v9L12 21l8.5-4.5v-9Z"/>
    <path d="m3.5 7.5 8.5 4.5 8.5-4.5M12 12v9"/>
  </symbol>

  <symbol id="i-warehouse" viewBox="0 0 24 24" fill="none" stroke="currentColor" stroke-width="1.75" stroke-linecap="round" stroke-linejoin="round">
    <path d="M3 20V9l9-4 9 4v11"/>
    <path d="M7 20v-7h10v7M7 16.5h10"/>
  </symbol>

  <symbol id="i-droplet" viewBox="0 0 24 24" fill="none" stroke="currentColor" stroke-width="1.75" stroke-linecap="round" stroke-linejoin="round">
    <path d="M12 3.5c3.5 4 6 6.9 6 10a6 6 0 0 1-12 0c0-3.1 2.5-6 6-10Z"/>
  </symbol>

  <symbol id="i-clipboard" viewBox="0 0 24 24" fill="none" stroke="currentColor" stroke-width="1.75" stroke-linecap="round" stroke-linejoin="round">
    <path d="M9 4.5H7.5A1.5 1.5 0 0 0 6 6v13a1.5 1.5 0 0 0 1.5 1.5h9A1.5 1.5 0 0 0 18 19V6a1.5 1.5 0 0 0-1.5-1.5H15"/>
    <rect x="9" y="3" width="6" height="3.5" rx="1"/>
    <path d="M9.5 12h5M9.5 15.5h3"/>
  </symbol>

  <symbol id="i-receipt" viewBox="0 0 24 24" fill="none" stroke="currentColor" stroke-width="1.75" stroke-linecap="round" stroke-linejoin="round">
    <path d="M5 3.5h14v17l-2.5-1.5L14 20.5 11.5 19 9 20.5 6.5 19 5 20.5Z"/>
    <path d="M9 9h6M9 13h6"/>
  </symbol>

  <symbol id="i-card" viewBox="0 0 24 24" fill="none" stroke="currentColor" stroke-width="1.75" stroke-linecap="round" stroke-linejoin="round">
    <rect x="3" y="5.5" width="18" height="13" rx="1.5"/>
    <path d="M3 10h18M7 14.5h3"/>
  </symbol>

  <symbol id="i-mail" viewBox="0 0 24 24" fill="none" stroke="currentColor" stroke-width="1.75" stroke-linecap="round" stroke-linejoin="round">
    <rect x="3" y="5" width="18" height="14" rx="1.5"/>
    <path d="m3.5 6.5 8.5 6 8.5-6"/>
  </symbol>

  <symbol id="i-megaphone" viewBox="0 0 24 24" fill="none" stroke="currentColor" stroke-width="1.75" stroke-linecap="round" stroke-linejoin="round">
    <path d="M4 10v4a1 1 0 0 0 1 1h2l7 4V5L7 9H5a1 1 0 0 0-1 1Z"/>
    <path d="M17.5 9.5a4 4 0 0 1 0 5"/>
  </symbol>

  <symbol id="i-chart" viewBox="0 0 24 24" fill="none" stroke="currentColor" stroke-width="1.75" stroke-linecap="round" stroke-linejoin="round">
    <path d="M4 20V4"/>
    <path d="M4 20h16"/>
    <path d="M8 20v-6M12.5 20V8.5M17 20v-8"/>
  </symbol>

  <symbol id="i-gauge" viewBox="0 0 24 24" fill="none" stroke="currentColor" stroke-width="1.75" stroke-linecap="round" stroke-linejoin="round">
    <path d="M4 17a8.5 8.5 0 1 1 16 0"/>
    <path d="m12 13 3.5-3.5"/>
  </symbol>

  <symbol id="i-shield" viewBox="0 0 24 24" fill="none" stroke="currentColor" stroke-width="1.75" stroke-linecap="round" stroke-linejoin="round">
    <path d="M12 3 5 6v6c0 4.2 2.9 7.8 7 9 4.1-1.2 7-4.8 7-9V6Z"/>
    <path d="m9 12 2.2 2.2L15.5 10"/>
  </symbol>

  <symbol id="i-lock" viewBox="0 0 24 24" fill="none" stroke="currentColor" stroke-width="1.75" stroke-linecap="round" stroke-linejoin="round">
    <rect x="4.5" y="10.5" width="15" height="10" rx="1.5"/>
    <path d="M8 10.5V8a4 4 0 0 1 8 0v2.5"/>
  </symbol>

  <symbol id="i-layers" viewBox="0 0 24 24" fill="none" stroke="currentColor" stroke-width="1.75" stroke-linecap="round" stroke-linejoin="round">
    <path d="m12 3 8.5 4.5L12 12 3.5 7.5Z"/>
    <path d="m3.5 12.5 8.5 4.5 8.5-4.5"/>
  </symbol>

  <symbol id="i-grid" viewBox="0 0 24 24" fill="none" stroke="currentColor" stroke-width="1.75" stroke-linecap="round" stroke-linejoin="round">
    <rect x="4" y="4" width="6.5" height="6.5" rx="1"/>
    <rect x="13.5" y="4" width="6.5" height="6.5" rx="1"/>
    <rect x="4" y="13.5" width="6.5" height="6.5" rx="1"/>
    <rect x="13.5" y="13.5" width="6.5" height="6.5" rx="1"/>
  </symbol>

  <symbol id="i-spark" viewBox="0 0 24 24" fill="none" stroke="currentColor" stroke-width="1.75" stroke-linecap="round" stroke-linejoin="round">
    <path d="M12 3.5 13.8 9l5.7 1.8-5.7 1.8L12 18.3l-1.8-5.7L4.5 10.8 10.2 9Z"/>
    <path d="M18.5 16.5 19.2 18.5 21 19.2 19.2 20 18.5 22 17.8 20 16 19.2 17.8 18.5Z"/>
  </symbol>

  <symbol id="i-bolt" viewBox="0 0 24 24" fill="none" stroke="currentColor" stroke-width="1.75" stroke-linecap="round" stroke-linejoin="round">
    <path d="M13 3 5.5 13.5H11L10 21l7.5-10.5H12Z"/>
  </symbol>

  <symbol id="i-code" viewBox="0 0 24 24" fill="none" stroke="currentColor" stroke-width="1.75" stroke-linecap="round" stroke-linejoin="round">
    <path d="m9 8-4 4 4 4M15 8l4 4-4 4"/>
  </symbol>

  <symbol id="i-terminal" viewBox="0 0 24 24" fill="none" stroke="currentColor" stroke-width="1.75" stroke-linecap="round" stroke-linejoin="round">
    <rect x="3" y="4.5" width="18" height="15" rx="1.5"/>
    <path d="m7.5 10 2.5 2-2.5 2M13 14h4"/>
  </symbol>

  <symbol id="i-tag" viewBox="0 0 24 24" fill="none" stroke="currentColor" stroke-width="1.75" stroke-linecap="round" stroke-linejoin="round">
    <path d="M11 3.5H5.5A2 2 0 0 0 3.5 5.5V11l9 9.5 8-8Z"/>
    <circle cx="7.75" cy="7.75" r="1.25"/>
  </symbol>

  <symbol id="i-heart" viewBox="0 0 24 24" fill="none" stroke="currentColor" stroke-width="1.75" stroke-linecap="round" stroke-linejoin="round">
    <path d="M12 20s-7.5-4.6-7.5-9.4A4.1 4.1 0 0 1 12 7.6a4.1 4.1 0 0 1 7.5 3C19.5 15.4 12 20 12 20Z"/>
  </symbol>

  <symbol id="i-globe" viewBox="0 0 24 24" fill="none" stroke="currentColor" stroke-width="1.75" stroke-linecap="round" stroke-linejoin="round">
    <circle cx="12" cy="12" r="8.5"/>
    <path d="M3.5 12h17M12 3.5c2.2 2.4 3.3 5.3 3.3 8.5S14.2 18.1 12 20.5c-2.2-2.4-3.3-5.3-3.3-8.5S9.8 5.9 12 3.5Z"/>
  </symbol>

  <symbol id="i-building" viewBox="0 0 24 24" fill="none" stroke="currentColor" stroke-width="1.75" stroke-linecap="round" stroke-linejoin="round">
    <path d="M4.5 20V5.5A1.5 1.5 0 0 1 6 4h7a1.5 1.5 0 0 1 1.5 1.5V20"/>
    <path d="M14.5 10H18a1.5 1.5 0 0 1 1.5 1.5V20M3 20h18"/>
    <path d="M8 8h3M8 12h3M8 16h3"/>
  </symbol>

  <symbol id="i-wrench" viewBox="0 0 24 24" fill="none" stroke="currentColor" stroke-width="1.75" stroke-linecap="round" stroke-linejoin="round">
    <path d="M15.5 3.5a5 5 0 0 0-4.3 7.5L4 18.2 5.8 20l7.2-7.2a5 5 0 0 0 7.5-4.3l-3 3-2.8-.8-.8-2.8Z"/>
  </symbol>

  <symbol id="i-camera" viewBox="0 0 24 24" fill="none" stroke="currentColor" stroke-width="1.75" stroke-linecap="round" stroke-linejoin="round">
    <path d="M3.5 8.5h3l1.5-2.5h8l1.5 2.5h3v10h-17Z"/>
    <circle cx="12" cy="13" r="3.25"/>
  </symbol>

  <symbol id="i-signature" viewBox="0 0 24 24" fill="none" stroke="currentColor" stroke-width="1.75" stroke-linecap="round" stroke-linejoin="round">
    <path d="M3 18c3 0 4-10 6.5-10S11 17 13 17s2.5-4 4-4 1.5 2 4 2"/>
    <path d="M3 21h18"/>
  </symbol>

  <symbol id="i-bell" viewBox="0 0 24 24" fill="none" stroke="currentColor" stroke-width="1.75" stroke-linecap="round" stroke-linejoin="round">
    <path d="M6 16V11a6 6 0 0 1 12 0v5l1.5 2.5h-15Z"/>
    <path d="M10 18.5a2 2 0 0 0 4 0"/>
  </symbol>

  <symbol id="i-search" viewBox="0 0 24 24" fill="none" stroke="currentColor" stroke-width="1.75" stroke-linecap="round" stroke-linejoin="round">
    <circle cx="11" cy="11" r="6.5"/>
    <path d="m15.8 15.8 4.2 4.2"/>
  </symbol>

  <symbol id="i-note" viewBox="0 0 24 24" fill="none" stroke="currentColor" stroke-width="1.75" stroke-linecap="round" stroke-linejoin="round">
    <path d="M5 3.5h9L19 8.5V20.5H5Z"/>
    <path d="M14 3.5v5h5M8.5 13h7M8.5 16.5h4"/>
  </symbol>

  <symbol id="i-chat" viewBox="0 0 24 24" fill="none" stroke="currentColor" stroke-width="1.75" stroke-linecap="round" stroke-linejoin="round">
    <path d="M4 5h16v10H9l-4 4v-4H4Z"/>
    <path d="M8 9h8M8 12h5"/>
  </symbol>

  <symbol id="i-database" viewBox="0 0 24 24" fill="none" stroke="currentColor" stroke-width="1.75" stroke-linecap="round" stroke-linejoin="round">
    <ellipse cx="12" cy="6.5" rx="7.5" ry="3"/>
    <path d="M4.5 6.5v11c0 1.7 3.4 3 7.5 3s7.5-1.3 7.5-3v-11"/>
    <path d="M4.5 12c0 1.7 3.4 3 7.5 3s7.5-1.3 7.5-3"/>
  </symbol>

  <symbol id="i-server" viewBox="0 0 24 24" fill="none" stroke="currentColor" stroke-width="1.75" stroke-linecap="round" stroke-linejoin="round">
    <rect x="3.5" y="4" width="17" height="6" rx="1.5"/>
    <rect x="3.5" y="14" width="17" height="6" rx="1.5"/>
    <path d="M7 7h.01M7 17h.01"/>
  </symbol>

  <symbol id="i-plug" viewBox="0 0 24 24" fill="none" stroke="currentColor" stroke-width="1.75" stroke-linecap="round" stroke-linejoin="round">
    <path d="M9 3.5v5M15 3.5v5M6.5 8.5h11v3a5.5 5.5 0 0 1-11 0Z"/>
    <path d="M12 17v3.5"/>
  </symbol>

  <symbol id="i-check" viewBox="0 0 24 24" fill="none" stroke="currentColor" stroke-width="1.75" stroke-linecap="round" stroke-linejoin="round">
    <path d="m5 12.5 4.5 4.5L19 7"/>
  </symbol>

  <symbol id="i-chevron" viewBox="0 0 24 24" fill="none" stroke="currentColor" stroke-width="1.75" stroke-linecap="round" stroke-linejoin="round">
    <path d="m9 6 6 6-6 6"/>
  </symbol>

  <symbol id="i-arrow" viewBox="0 0 24 24" fill="none" stroke="currentColor" stroke-width="1.75" stroke-linecap="round" stroke-linejoin="round">
    <path d="M4 12h15M13 5.5 19.5 12 13 18.5"/>
  </symbol>

  <symbol id="i-sun" viewBox="0 0 24 24" fill="none" stroke="currentColor" stroke-width="1.75" stroke-linecap="round" stroke-linejoin="round">
    <circle cx="12" cy="12" r="4"/>
    <path d="M12 2.5v2M12 19.5v2M2.5 12h2M19.5 12h2M5.3 5.3l1.4 1.4M17.3 17.3l1.4 1.4M18.7 5.3l-1.4 1.4M6.7 17.3l-1.4 1.4"/>
  </symbol>

  <symbol id="i-moon" viewBox="0 0 24 24" fill="none" stroke="currentColor" stroke-width="1.75" stroke-linecap="round" stroke-linejoin="round">
    <path d="M20 14.5A8.5 8.5 0 0 1 9.5 4a8.5 8.5 0 1 0 10.5 10.5Z"/>
  </symbol>

  <symbol id="i-menu" viewBox="0 0 24 24" fill="none" stroke="currentColor" stroke-width="1.75" stroke-linecap="round" stroke-linejoin="round">
    <path d="M4 7h16M4 12h16M4 17h16"/>
  </symbol>

  <symbol id="i-close" viewBox="0 0 24 24" fill="none" stroke="currentColor" stroke-width="1.75" stroke-linecap="round" stroke-linejoin="round">
    <path d="m6 6 12 12M18 6 6 18"/>
  </symbol>

  <symbol id="i-trend" viewBox="0 0 24 24" fill="none" stroke="currentColor" stroke-width="1.75" stroke-linecap="round" stroke-linejoin="round">
    <path d="M3.5 16.5 9 11l3.5 3.5L20.5 6.5"/>
    <path d="M15.5 6.5h5v5"/>
  </symbol>

  <symbol id="i-eye" viewBox="0 0 24 24" fill="none" stroke="currentColor" stroke-width="1.75" stroke-linecap="round" stroke-linejoin="round">
    <path d="M2.5 12S6 6.5 12 6.5 21.5 12 21.5 12 18 17.5 12 17.5 2.5 12 2.5 12Z"/>
    <circle cx="12" cy="12" r="2.75"/>
  </symbol>

  <symbol id="i-reply" viewBox="0 0 24 24" fill="none" stroke="currentColor" stroke-width="1.75" stroke-linecap="round" stroke-linejoin="round">
    <path d="M9 7 4 12l5 5"/>
    <path d="M4 12h8a7.5 7.5 0 0 1 7.5 7.5"/>
  </symbol>

  <symbol id="i-sitemap" viewBox="0 0 24 24" fill="none" stroke="currentColor" stroke-width="1.75" stroke-linecap="round" stroke-linejoin="round">
    <rect x="9" y="3" width="6" height="4.5" rx="1"/>
    <rect x="3" y="16.5" width="6" height="4.5" rx="1"/>
    <rect x="15" y="16.5" width="6" height="4.5" rx="1"/>
    <path d="M12 7.5v4.5M6 16.5v-2.2h12v2.2"/>
  </symbol>
</svg>
